<?xml version="1.0" standalone="no"?>
<!DOCTYPE svg PUBLIC "-//W3C//DTD SVG 20010904//EN"
 "http://www.w3.org/TR/2001/REC-SVG-20010904/DTD/svg10.dtd">
<svg version="1.0" xmlns="http://www.w3.org/2000/svg"
 width="1604.000000pt" height="1604.000000pt" viewBox="0 0 1604.000000 1604.000000"
 preserveAspectRatio="xMidYMid meet">
<metadata>
Created by potrace 1.14, written by Peter Selinger 2001-2017
</metadata>
<g transform="translate(0.000000,1604.000000) scale(0.100000,-0.100000)"
fill="#000000" stroke="none">
<path d="M11311 14513 c-6 -21 -11 -52 -11 -70 0 -17 -4 -35 -10 -38 -5 -3
-10 -21 -10 -39 0 -17 -4 -36 -9 -41 -5 -6 -11 -30 -14 -55 -6 -50 -21 -132
-37 -200 -10 -42 -17 -82 -40 -220 -5 -30 -13 -77 -19 -105 -5 -27 -12 -68
-16 -90 -4 -22 -10 -49 -15 -60 -5 -11 -11 -33 -14 -50 -3 -16 -10 -50 -15
-75 -12 -55 -29 -137 -42 -210 -10 -54 -18 -101 -38 -230 -13 -86 -28 -165
-41 -220 -28 -117 -47 -213 -60 -295 -5 -33 -14 -87 -20 -120 -19 -103 -30
-168 -36 -218 -4 -26 -11 -50 -15 -53 -5 -3 -9 -27 -9 -54 0 -27 -4 -52 -10
-55 -5 -3 -10 -18 -10 -32 0 -15 -4 -40 -9 -57 -5 -17 -15 -51 -21 -76 -7 -25
-16 -56 -21 -70 -4 -14 -11 -46 -15 -72 -5 -41 -4 -48 11 -48 9 0 91 36 181
80 91 44 169 80 174 80 6 0 18 4 28 10 20 11 120 56 212 95 36 15 103 48 150
73 130 69 161 83 172 80 16 -6 54 -125 78 -248 5 -25 14 -67 20 -95 31 -141
47 -266 81 -610 5 -55 12 -311 15 -570 5 -389 3 -503 -11 -660 -24 -273 -49
-448 -85 -580 -6 -22 -15 -56 -20 -75 -5 -19 -13 -52 -19 -72 -6 -21 -15 -53
-20 -70 -5 -18 -15 -49 -21 -68 -7 -19 -16 -51 -20 -70 -5 -19 -13 -52 -19
-72 -6 -21 -15 -53 -20 -70 -18 -64 -71 -201 -110 -281 -42 -89 -80 -172 -101
-227 -20 -49 -95 -192 -145 -275 -105 -174 -150 -245 -196 -307 -27 -37 -49
-70 -49 -73 0 -13 -225 -332 -250 -355 -3 -3 -17 -21 -32 -42 -15 -20 -33 -42
-40 -50 -7 -7 -38 -43 -68 -78 -111 -132 -337 -365 -410 -422 -41 -33 -100
-83 -130 -111 -30 -29 -80 -72 -110 -97 -30 -25 -57 -47 -60 -50 -7 -8 -425
-316 -470 -347 -52 -35 -190 -123 -230 -146 -136 -78 -606 -317 -685 -349 -22
-9 -78 -34 -125 -56 -109 -52 -218 -95 -350 -138 -58 -19 -114 -39 -125 -44
-11 -4 -65 -22 -120 -39 -55 -18 -109 -36 -120 -40 -11 -5 -31 -12 -45 -16
-14 -3 -41 -11 -60 -16 -19 -6 -53 -14 -75 -19 -22 -5 -60 -14 -85 -20 -25 -6
-65 -15 -90 -20 -25 -5 -67 -14 -95 -20 -27 -6 -75 -15 -105 -20 -30 -6 -77
-14 -105 -19 -109 -21 -254 -41 -335 -46 -201 -14 -697 -17 -780 -5 -47 6
-116 15 -155 20 -38 5 -110 14 -160 21 -49 6 -121 18 -160 25 -38 8 -108 21
-155 30 -172 30 -361 76 -454 111 -22 8 -87 30 -145 50 -59 19 -110 38 -116
42 -5 4 -82 36 -170 71 -88 35 -182 76 -210 91 -198 105 -275 148 -290 159 -5
4 -35 21 -65 37 -30 17 -72 40 -93 52 -64 36 -216 140 -315 215 -52 39 -113
85 -137 101 -125 88 -156 116 -238 213 -108 127 -257 331 -316 434 -10 18 -39
69 -64 113 -92 161 -232 552 -266 745 -7 36 -16 88 -21 115 -35 190 -59 445
-61 670 -1 142 6 239 31 435 6 47 15 114 20 150 18 144 36 233 80 410 10 40
68 261 80 305 34 124 114 326 189 475 186 371 269 516 394 690 34 47 64 87 67
90 10 10 50 69 50 74 0 3 21 33 48 66 26 34 59 77 74 97 90 117 332 386 450
498 155 149 308 289 326 299 9 6 34 26 55 45 21 20 48 42 61 51 12 8 54 40 92
71 88 71 390 272 533 355 47 27 221 120 291 155 100 51 364 162 450 189 14 5
63 22 110 40 113 42 312 108 378 126 53 14 139 38 202 56 157 43 431 89 720
118 373 38 1380 58 1568 30 51 -7 96 -10 100 -6 15 16 -54 54 -151 86 -56 18
-112 36 -125 41 -13 5 -33 9 -45 9 -13 0 -27 4 -33 8 -5 5 -29 14 -54 21 -25
7 -55 17 -68 22 -13 5 -34 9 -47 9 -13 0 -27 5 -30 10 -3 6 -26 10 -50 10 -24
0 -46 4 -49 9 -6 9 -51 17 -151 27 -33 3 -69 9 -80 14 -63 28 -751 60 -1010
47 -203 -10 -408 -24 -460 -31 -171 -25 -376 -61 -480 -85 -22 -5 -63 -14 -91
-19 -27 -6 -70 -18 -95 -26 -24 -9 -51 -16 -60 -16 -20 0 -502 -159 -599 -198
-393 -157 -593 -258 -980 -497 -41 -25 -84 -52 -95 -58 -11 -7 -22 -14 -25
-17 -3 -3 -35 -27 -71 -52 -262 -185 -696 -584 -937 -861 -248 -284 -498 -621
-612 -827 -20 -36 -62 -109 -94 -163 -81 -140 -168 -315 -216 -437 -23 -58
-50 -123 -60 -145 -55 -121 -159 -456 -190 -610 -5 -22 -13 -67 -20 -100 -7
-33 -16 -80 -21 -105 -40 -200 -48 -294 -56 -619 -7 -334 1 -463 57 -881 11
-78 57 -313 71 -355 5 -16 23 -79 40 -140 46 -166 85 -275 140 -391 27 -58 49
-108 49 -110 0 -12 92 -199 126 -256 37 -64 58 -100 94 -163 41 -74 186 -283
241 -350 150 -183 542 -536 794 -715 35 -25 90 -64 122 -88 63 -47 317 -207
400 -252 28 -16 94 -57 145 -91 85 -58 391 -219 498 -262 25 -10 63 -27 85
-37 65 -31 247 -107 311 -130 267 -96 419 -139 629 -180 33 -6 78 -15 100 -20
22 -5 69 -14 105 -20 36 -6 74 -13 85 -16 265 -61 595 -87 1110 -88 256 -1
419 3 500 12 66 8 156 18 200 22 94 11 218 27 260 35 68 13 134 25 195 35 36
6 81 15 100 20 59 15 163 41 200 50 44 11 162 43 260 70 41 12 89 25 105 30
17 4 111 35 210 69 99 34 194 66 210 70 17 4 47 15 68 24 57 26 93 41 212 92
107 45 375 177 620 305 66 34 166 93 222 131 56 38 105 69 108 69 3 0 39 23
80 50 41 28 78 50 83 50 5 0 17 9 27 20 10 11 23 20 30 20 7 0 20 9 30 20 10
11 22 20 26 20 8 0 69 43 119 83 8 7 51 40 95 73 44 34 107 86 141 115 96 85
117 103 142 121 30 21 247 222 342 318 93 93 261 278 323 355 9 11 46 58 83
105 38 47 70 87 74 90 7 7 50 59 80 100 26 34 110 142 135 172 7 9 41 58 76
110 34 51 65 95 69 98 13 10 70 99 70 109 0 6 5 11 10 11 6 0 10 5 10 11 0 5
18 37 40 69 22 32 40 62 40 65 0 4 14 26 30 50 17 24 30 48 30 53 0 6 3 12 8
14 4 2 19 26 35 53 28 53 233 466 247 500 4 11 21 49 37 85 17 36 40 92 52
125 13 33 27 70 32 83 5 12 14 33 19 47 6 14 14 35 19 48 5 12 15 40 22 62 7
22 16 45 19 50 4 6 12 30 19 55 7 25 17 54 21 65 4 11 13 40 20 65 6 25 16 53
21 62 5 10 9 25 9 33 0 8 4 23 9 33 14 29 31 87 31 110 0 11 5 24 10 27 6 3
10 21 10 40 0 19 4 36 9 39 5 3 11 20 14 38 3 18 11 54 16 81 26 113 32 144
37 172 3 17 9 39 14 50 5 11 11 36 14 55 3 19 10 60 16 90 31 157 47 260 60
380 17 168 20 197 30 325 6 72 13 148 16 170 2 22 8 159 13 305 10 304 1 554
-34 1005 -4 44 -10 89 -15 100 -5 11 -11 49 -14 85 -6 76 -20 175 -35 243 -39
170 -51 230 -57 262 -3 17 -9 39 -14 50 -9 21 -18 58 -27 113 -3 18 -9 35 -14
38 -5 3 -9 18 -9 33 0 15 -3 31 -7 35 -10 9 -33 78 -33 98 0 12 13 21 43 29
57 15 210 76 277 111 30 15 58 28 63 28 8 0 119 50 159 71 10 5 25 9 33 9 8 0
23 4 33 9 9 5 28 13 42 19 14 5 46 19 73 31 26 11 68 31 95 42 52 24 78 34
104 43 15 4 16 10 7 28 -9 21 -98 88 -116 88 -11 0 -163 77 -179 91 -8 6 -137
73 -286 148 -288 145 -296 149 -343 174 -16 10 -55 29 -85 43 -79 37 -120 58
-163 82 -21 12 -42 22 -48 22 -6 0 -29 13 -52 28 -23 15 -91 52 -152 81 -60
30 -121 60 -135 67 -24 14 -42 22 -220 107 -297 140 -359 169 -412 188 -21 7
-38 16 -38 19 0 7 -74 45 -205 105 -44 21 -102 48 -130 60 -62 29 -140 55
-165 55 -14 0 -22 -11 -29 -37z"/>
<path d="M11355 11390 c-16 -11 -75 -43 -130 -72 -55 -28 -128 -66 -163 -84
-35 -19 -71 -34 -80 -34 -10 0 -22 -8 -28 -17 -7 -13 -8 -255 -2 -823 5 -443
7 -1071 5 -1397 -4 -499 -2 -591 9 -586 8 3 14 11 14 19 0 7 9 30 21 51 66
118 131 272 159 378 10 39 38 124 50 150 11 24 43 123 60 185 7 25 16 56 20
70 5 14 11 41 15 60 10 48 22 97 35 145 39 137 71 333 102 620 17 157 17 722
0 925 -7 85 -16 211 -21 280 -7 119 -13 150 -29 150 -4 0 -20 -9 -37 -20z"/>
<path d="M10296 11273 c-4 -5 -192 -10 -417 -13 l-409 -5 -6 -2314 c-4 -1577
-3 -2312 4 -2310 43 16 545 493 650 618 61 72 193 205 256 257 l50 40 -13 620
c-6 341 -11 1175 -11 1857 1 680 -2 1242 -5 1247 -7 12 -88 14 -99 3z"/>
<path d="M8857 10053 c-13 -12 -291 -23 -587 -23 -223 0 -300 -3 -313 -12 -15
-12 -16 -32 -7 -248 6 -134 9 -1026 7 -2072 -1 -1294 1 -1840 9 -1848 10 -10
22 -6 159 49 44 18 342 168 450 226 141 76 206 106 309 139 17 6 18 13 10 94
-10 102 -14 3197 -4 3482 5 180 2 220 -20 220 -3 0 -10 -3 -13 -7z"/>
<path d="M6385 9013 c3 -48 8 -850 11 -1781 l5 -1694 157 6 c86 3 193 10 237
16 44 6 109 15 145 20 36 5 85 12 110 15 25 3 54 10 65 15 11 5 38 11 60 14
72 9 148 25 157 34 5 5 9 727 9 1723 l-1 1714 -112 -5 c-173 -8 -578 -6 -721
3 l-128 8 6 -88z"/>
<path d="M5718 8275 c-3 -3 -126 -10 -274 -15 -148 -6 -345 -13 -437 -17
l-168 -6 5 -91 c3 -50 9 -604 14 -1231 5 -627 12 -1147 16 -1156 4 -9 31 -22
64 -29 31 -7 82 -20 112 -28 50 -13 74 -18 195 -42 22 -4 76 -15 120 -24 231
-47 291 -56 362 -56 l65 0 -3 1338 c-1 735 -4 1343 -7 1350 -4 12 -53 17 -64
7z"/>
<path d="M3348 7359 c-11 -7 7 -566 23 -687 11 -81 12 -83 45 -97 18 -7 70
-42 115 -77 45 -35 94 -72 109 -83 15 -11 39 -29 55 -40 15 -11 55 -41 88 -66
209 -155 436 -283 466 -264 7 4 10 215 8 661 l-2 655 -449 2 c-246 1 -452 -1
-458 -4z"/>
<path d="M12225 6268 c-68 -102 -228 -300 -332 -410 -221 -234 -598 -600 -666
-647 -12 -8 -24 -18 -27 -21 -5 -6 -103 -83 -207 -161 l-48 -37 5 -523 c3
-288 5 -938 5 -1444 l0 -920 -275 0 -275 0 -5 1270 c-3 738 -9 1276 -14 1284
-8 12 -13 10 -30 -11 -21 -25 -108 -88 -122 -88 -4 0 -15 -7 -23 -15 -9 -8
-82 -47 -161 -88 -80 -41 -192 -99 -250 -128 -124 -64 -181 -89 -201 -89 -8 0
-19 -4 -24 -8 -6 -5 -29 -14 -52 -22 l-42 -13 -5 -146 c-3 -80 -8 -553 -12
-1051 l-5 -905 -277 3 c-152 1 -281 4 -287 6 -12 4 -13 1672 -1 1794 8 73 7
82 -8 82 -9 0 -24 -4 -34 -9 -28 -15 -121 -48 -202 -71 -41 -12 -84 -26 -95
-30 -11 -5 -36 -13 -55 -19 -19 -6 -57 -18 -85 -27 -27 -9 -68 -21 -90 -26
-22 -5 -58 -13 -80 -19 -67 -16 -187 -33 -237 -32 -27 0 -48 -3 -48 -6 0 -3
-2 -373 -5 -821 l-4 -815 -303 0 -303 0 0 779 0 778 -130 -7 c-250 -15 -716
-5 -795 16 -13 4 -16 -90 -20 -781 l-5 -785 -293 -5 c-212 -4 -296 -2 -303 6
-6 7 -9 337 -9 835 l1 824 -38 7 c-21 4 -83 12 -138 18 -55 6 -118 15 -140 20
-22 4 -67 14 -100 20 -79 15 -144 30 -175 40 -14 4 -59 18 -100 30 -41 13
-106 34 -143 46 -50 18 -69 21 -72 11 -8 -24 -25 -953 -25 -1400 l0 -457 -300
2 -299 3 -2 1046 -1 1045 -171 84 c-95 47 -201 101 -236 122 -34 21 -65 38
-67 38 -11 0 -219 140 -276 186 -79 64 -114 82 -129 67 -25 -25 -28 -190 -23
-1372 l6 -1234 -34 6 c-26 5 -2404 12 -2541 8 -30 -1 -46 -10 -86 -48 -55 -54
-78 -110 -67 -166 8 -41 82 -129 128 -153 27 -14 707 -16 6697 -15 l6667 1 50
24 c67 32 134 121 134 176 -1 38 -34 104 -66 129 -68 54 -29 52 -1001 53
l-903 1 -1 86 c0 47 0 806 0 1686 1 1959 -10 2465 -55 2465 -6 0 -33 -33 -59
-72z"/>
</g>
</svg>
